<svg xmlns="http://www.w3.org/2000/svg" width="600" height="600" viewBox="0 0 600 600">
  <defs>
    <linearGradient id="bg7" x1="0%" y1="0%" x2="100%" y2="100%">
      <stop offset="0%" style="stop-color:#b85c00"/>
      <stop offset="100%" style="stop-color:#d4720a"/>
    </linearGradient>
  </defs>
  <rect width="600" height="600" fill="url(#bg7)"/>
  <circle cx="500" cy="80" r="130" fill="rgba(255,255,255,0.07)"/>
  <circle cx="80" cy="520" r="110" fill="rgba(255,255,255,0.05)"/>
  <g transform="translate(210,110)">
    <rect x="10" y="45" width="160" height="125" rx="14" fill="rgba(255,255,255,0.2)" stroke="rgba(255,255,255,0.45)" stroke-width="2.5"/>
    <path d="M38 45 Q38 8 90 8 Q142 8 142 45" fill="none" stroke="rgba(255,255,255,0.45)" stroke-width="3" stroke-linecap="round"/>
    <rect x="62" y="62" width="56" height="9" rx="4.5" fill="rgba(255,255,255,0.35)"/>
    <circle cx="90" cy="108" r="14" fill="rgba(255,255,255,0.25)" stroke="rgba(255,255,255,0.45)" stroke-width="2"/>
    <line x1="90" y1="94" x2="90" y2="122" stroke="rgba(255,255,255,0.45)" stroke-width="2"/>
    <line x1="76" y1="108" x2="104" y2="108" stroke="rgba(255,255,255,0.45)" stroke-width="2"/>
  </g>
  <rect x="50" y="305" width="500" height="240" rx="22" fill="rgba(255,255,255,0.96)"/>
  <text x="300" y="352" font-family="Georgia,serif" font-size="12" font-weight="700"
    fill="#ffffff" text-anchor="middle" letter-spacing="5">HERMES</text>
  <line x1="190" y1="366" x2="410" y2="366" stroke="#ffffff" stroke-width="1" opacity="0.35"/>
  <text x="300" y="408" font-family="Georgia,serif" font-size="26" font-weight="600"
    fill="#2c2c2c" text-anchor="middle">Kelly 28</text>
  <text x="300" y="442" font-family="Georgia,serif" font-size="26" font-weight="600"
    fill="#2c2c2c" text-anchor="middle"></text>
  <text x="300" y="488" font-family="Georgia,serif" font-size="24" font-weight="700"
    fill="#ffffff" text-anchor="middle">$15000</text>
  <text x="300" y="522" font-family="Arial,sans-serif" font-size="13"
    fill="#ffffff" text-anchor="middle" opacity="0.55">&#9825; Authentic Luxury &#9825;</text>
</svg>